<svg xmlns="http://www.w3.org/2000/svg" xmlns:xlink="http://www.w3.org/1999/xlink" width="1390.189" height="289.557" viewBox="0 0 1390.189 289.557">
  <defs>
    <filter id="Path_1" x="0" y="0" width="1390.189" height="289.557" filterUnits="userSpaceOnUse">
      <feOffset dy="4" input="SourceAlpha"/>
      <feGaussianBlur stdDeviation="4" result="blur"/>
      <feFlood/>
      <feComposite operator="in" in2="blur"/>
      <feComposite in="SourceGraphic"/>
    </filter>
  </defs>
  <g transform="matrix(1, 0, 0, 1, 0, 0)" filter="url(#Path_1)">
    <path id="Path_1-2" data-name="Path 1" d="M11.88,73.5H131.243V37.21H55.259v-154.8H11.88ZM218.851-68.26c-44.513,0-74,28.636-74,73.432s31.187,71.448,71.731,71.448c37.141,0,73.149-23.249,73.149-74C289.732-39.058,261.379-68.26,218.851-68.26Zm-1.134,30.62c19.563,0,27.5,20.981,27.5,41.678,0,24.95-10.774,41.678-27.5,41.678-18.429,0-28.352-17.862-28.352-41.678C189.365-16.376,197.02-37.64,217.717-37.64ZM316.383,73.5h43.1V-6.453c0-3.969.567-8.222,1.7-10.774,2.835-7.939,9.923-16.161,21.831-16.161,15.594,0,21.831,12.191,21.831,30.053V73.5h43.1V-8.721c0-40.827-21.264-59.54-49.616-59.54-22.965,0-37.141,13.326-42.812,22.115h-.851l-1.985-19H315.249c.567,12.191,1.134,26.935,1.134,44.229ZM577.506-65.142,576.089-48.7h-.567c-7.088-11.341-19-19.563-37.992-19.563-34.023,0-62.942,28.352-62.942,72.865,0,39.977,24.383,67.762,58.689,67.762,15.877,0,29.2-6.521,37.425-18.145h.567v9.073c0,25.517-15.594,36.574-36.007,36.574-16.161,0-31.471-5.387-40.26-10.49L486.5,121.983c12.475,7.088,31.754,10.774,49.9,10.774,20.414,0,41.111-3.969,56.421-17.011C608.41,101.853,613.8,80.022,613.8,53.371v-77.4c0-20.7.567-32.322,1.134-41.111Zm-6.8,76.834c0,3.686-.284,8.222-1.418,11.341C566.449,33.24,557.66,40.612,546.6,40.612c-18.145,0-28.352-16.161-28.352-36.858,0-25.233,12.758-39.41,28.352-39.41,11.908,0,20.13,7.655,23.249,19a34.083,34.083,0,0,1,.851,7.939ZM683.827,73.5l1.7-19.279h.567c9.923,16.444,25.517,22.4,41.678,22.4,31.755,0,63.509-24.95,63.509-74.85.283-42.528-24.1-70.03-57.271-70.03-19.279,0-33.739,7.655-41.961,19.563h-.567v-79.1h-43.1V32.106c0,15.594-.567,32.322-1.134,41.394Zm7.655-79.386a35.872,35.872,0,0,1,.851-7.939c2.835-12.475,13.609-21.264,25.233-21.264,20.13,0,29.77,17.011,29.77,38.559,0,24.95-11.341,39.126-29.77,39.126-12.475,0-22.4-8.789-25.233-20.414a31.62,31.62,0,0,1-.851-7.655ZM884.844-68.26c-44.513,0-74,28.636-74,73.432s31.187,71.448,71.731,71.448c37.141,0,73.149-23.249,73.149-74C955.725-39.058,927.372-68.26,884.844-68.26ZM883.71-37.64c19.563,0,27.5,20.981,27.5,41.678,0,24.95-10.774,41.678-27.5,41.678-18.429,0-28.352-17.862-28.352-41.678C855.358-16.376,863.013-37.64,883.71-37.64ZM1100.037,73.5c-1.418-7.655-1.985-20.414-1.985-33.739v-48.2c0-32.605-14.743-59.823-60.957-59.823-25.233,0-44.229,6.8-53.869,12.191l7.939,27.785c9.073-5.67,24.1-10.49,38.275-10.49,21.264,0,25.234,10.49,25.234,17.862v1.985C1005.624-19.211,973.3-1.916,973.3,34.091c0,22.115,16.728,42.528,44.8,42.528,16.444,0,30.62-5.954,39.693-17.011h.851l2.552,13.893Zm-43.946-50.467a30.9,30.9,0,0,1-.851,7.372,23.543,23.543,0,0,1-22.4,15.877c-9.64,0-17.011-5.387-17.011-16.444,0-16.728,17.578-22.115,40.26-21.831ZM1132.075,73.5h43.1V3.187a50.81,50.81,0,0,1,.851-9.64c2.835-13.326,13.609-21.831,29.486-21.831a61.778,61.778,0,0,1,11.625,1.134V-67.693a44.418,44.418,0,0,0-9.073-.567c-13.326,0-30.337,8.506-37.425,28.636H1169.5l-1.417-25.517h-37.141c.567,11.908,1.134,25.233,1.134,45.647ZM1328.84-127.8v75.133h-.567c-6.238-9.64-19.563-15.594-36.574-15.594-33.172,0-62.375,26.935-62.091,73.716,0,43.1,26.368,71.164,59.256,71.164,17.862,0,34.59-7.939,43.379-23.532h.567l1.985,20.414h38.275c-.567-9.356-1.134-25.8-1.134-41.394V-127.8Zm0,139.493a36.693,36.693,0,0,1-1.134,9.923c-2.552,12.191-12.475,20.7-24.95,20.7-17.862,0-29.486-14.743-29.486-38.275,0-21.831,10.207-39.41,29.77-39.41,13.326,0,22.682,9.64,25.234,21.264a69.535,69.535,0,0,1,.567,7.655Z" transform="translate(2.62 138.3)" fill="none" stroke="#fcfffc" stroke-linecap="round" stroke-linejoin="round" stroke-width="5"/>
  </g>
</svg>
