<?xml version="1.0" encoding="UTF-8" standalone="no"?>
<svg
   xmlns:dc="http://purl.org/dc/elements/1.1/"
   xmlns:cc="http://creativecommons.org/ns#"
   xmlns:rdf="http://www.w3.org/1999/02/22-rdf-syntax-ns#"
   xmlns:svg="http://www.w3.org/2000/svg"
   xmlns="http://www.w3.org/2000/svg"
   xmlns:sodipodi="http://sodipodi.sourceforge.net/DTD/sodipodi-0.dtd"
   xmlns:inkscape="http://www.inkscape.org/namespaces/inkscape"
   aria-hidden="true"
   focusable="false"
   data-prefix="fas"
   data-icon="snowboarding"
   class="svg-inline--fa fa-snowboarding fa-w-16"
   role="img"
   viewBox="0 0 512 512"
   version="1.1"
   id="svg4"
   sodipodi:docname="snowboarding-solid.svg"
   inkscape:version="0.92.4 (5da689c313, 2019-01-14)">
  <metadata
     id="metadata10">
    <rdf:RDF>
      <cc:Work
         rdf:about="">
        <dc:format>image/svg+xml</dc:format>
        <dc:type
           rdf:resource="http://purl.org/dc/dcmitype/StillImage" />
      </cc:Work>
    </rdf:RDF>
  </metadata>
  <defs
     id="defs8" />
  <sodipodi:namedview
     pagecolor="#ffffff"
     bordercolor="#666666"
     borderopacity="1"
     objecttolerance="10"
     gridtolerance="10"
     guidetolerance="10"
     inkscape:pageopacity="0"
     inkscape:pageshadow="2"
     inkscape:window-width="1920"
     inkscape:window-height="1017"
     id="namedview6"
     showgrid="false"
     inkscape:zoom="0.4609375"
     inkscape:cx="-421.47324"
     inkscape:cy="367.56108"
     inkscape:window-x="-8"
     inkscape:window-y="-8"
     inkscape:window-maximized="1"
     inkscape:current-layer="svg4" />
  <path
     d="m 308.76966,139.95935 c 18.42144,-6.68629 27.94242,-27.05672 21.25612,-45.478153 -6.68629,-18.421435 -27.05672,-27.942406 -45.47816,-21.256118 -18.42143,6.686288 -27.9424,27.056721 -21.25611,45.478151 6.6863,18.42144 27.05671,27.94241 45.47815,21.25612 z m 58.77555,99.50822 c 5.11681,1.52573 10.30416,1.29503 14.96166,-0.39546 6.74294,-2.44743 12.30619,-7.9283 14.5662,-15.35711 3.81096,-12.47612 -3.20694,-25.74212 -15.75257,-29.52786 l -98.50769,-29.93725 c -12.19188,-3.67811 -24.87139,-5.44843 -37.56481,-5.08953 l -49.62999,1.33518 -31.28888,-29.63188 c -9.47822,-8.99007 -24.43988,-8.59461 -33.42996,0.88361 -8.99007,9.47821 -8.59462,24.43986 0.8836,33.42994 l 34.88821,33.04583 c 6.83871,6.48651 15.86534,9.89737 25.31113,9.69451 l 12.78816,-0.31463 -23.44248,24.71535 c -12.40404,13.07756 -16.3324,31.73277 -10.17597,48.69439 l 13.39782,36.91239 -45.27838,35.86657 c -10.26555,8.13168 -11.95503,22.98468 -3.82333,33.25023 2.49378,3.18585 5.77797,5.29807 9.30262,6.77231 l -30.45986,-0.037 c -7.62604,0.0145 -14.770107,-2.97834 -20.200503,-8.40256 -6.920587,-6.92882 -18.173241,-6.93552 -25.102072,-0.0149 -6.92883,6.92059 -6.935529,18.17325 -0.01494,25.10208 12.111028,12.12545 28.148874,18.81329 45.296395,18.80456 l 287.07215,0.20246 c 7.62604,-0.0145 15.03169,-1.28627 21.98317,-3.8094 8.68937,-3.15391 16.62796,-8.15949 23.30397,-14.90964 6.92882,-6.92059 6.93552,-18.17323 0.0149,-25.10207 -6.9206,-6.92884 -18.17326,-6.93553 -25.10208,-0.0149 -5.35471,5.40516 -12.55285,8.3325 -20.17887,8.34692 l -71.47107,-0.0994 c 5.01331,-5.04522 7.86704,-12.13883 6.84799,-19.71492 L 326.22762,297.7345 c -1.88103,-13.63572 -11.61052,-25.05213 -24.79414,-29.07833 l -45.98793,-13.99052 38.18427,-37.85468 z m -87.33488,72.37317 9.51835,68.92425 c 0.7487,5.31401 3.43764,9.68778 6.99267,13.19649 l -133.30065,-0.0793 c 1.82644,-0.82027 3.65288,-1.64055 5.23318,-2.92219 l 51.92195,-41.18882 c 11.98488,-9.4638 16.54351,-25.51555 11.32063,-39.90513 l -5.17241,-14.25055 z"
     id="path2"
     inkscape:connector-curvature="0"
     style="fill:#FCFFFC;stroke-width:1" />
  <circle
     style="opacity:1;fill:#FCFFFC;fill-opacity:1;stroke-width:1;"
     id="path817"
     cx="137.22034"
     cy="449.37518"
     r="20.067797" />
  <circle
     r="20.067797"
     cy="449.33264"
     cx="373.50879"
     id="circle819"
     style="opacity:1;fill:#FCFFFC;fill-opacity:1;stroke-width:1;" />
</svg>
